<svg width="305" height="65" viewBox="0 0 305 65" fill="none" xmlns="http://www.w3.org/2000/svg">
<path d="M299.873 10.5128L291.047 27.1202L285.732 21.9991L281.852 23.8983L281.755 18.6801L291.587 14.0601L279.895 16.8877L275.121 12.8006L299.873 10.5128Z" fill="#05558C"/>
<path d="M29.3787 48.9999H19.2987L18.3387 44.3919H13.0107L12.0027 48.9999H2.35469L8.54669 19.1919H23.1867L29.3787 48.9999ZM17.6187 38.1999L15.7947 28.2159H15.6027L13.7307 38.1999H17.6187ZM59.4976 33.4479C59.4976 43.8159 54.7616 48.9999 45.2896 48.9999H33.7216V19.1919H45.5296C50.6176 19.1919 54.2176 20.4239 56.3296 22.8879C58.4416 25.3199 59.4976 28.8399 59.4976 33.4479ZM45.1456 41.5119C46.7776 41.5119 47.8336 40.9519 48.3136 39.8319C48.7936 38.7119 49.0336 36.8559 49.0336 34.2639C49.0336 31.6399 48.7616 29.7839 48.2176 28.6959C47.7056 27.5759 46.6176 27.0159 44.9536 27.0159H43.9456V41.5119H45.1456ZM90.0079 19.1919L84.2479 48.9999H69.5119L63.4159 19.1919H74.5039L76.8079 37.4799H77.3839L79.4479 19.1919H90.0079ZM113.826 48.9999H94.8184V19.1919H114.498L113.826 27.1119H105.09V30.7119H112.722V37.6239H105.09V41.7039H114.498L113.826 48.9999ZM144.639 48.9999H134.847L128.799 37.2399H128.463V48.9999H119.343V19.1919H129.471L135.135 31.3359H135.423V19.1919H144.639V48.9999ZM171.732 27.3039H165.396V48.9999H155.172V27.3039H148.5L148.932 19.1919H172.308L171.732 27.3039ZM186.688 38.4399C186.688 40.1679 187.456 41.0319 188.992 41.0319C190.56 41.0319 191.344 40.1519 191.344 38.3919V19.1919H201.616V39.0159C201.616 42.5359 200.512 45.1599 198.304 46.8879C196.096 48.6159 192.928 49.4799 188.8 49.4799C180.416 49.4799 176.224 46.0239 176.224 39.1119V19.1919H186.688V38.4399Z" fill="#0D5382"/>
<path d="M229.568 28.5999C229.568 30.5199 229.248 32.0559 228.608 33.2079C228 34.3279 227.04 35.3199 225.728 36.1839L228.103 44.8079L219.603 48.3079L216.608 38.5359H215.84V48.8079H206V18.9999H218.72C222.432 18.9999 225.168 19.7839 226.928 21.3519C228.688 22.8879 229.568 25.3039 229.568 28.5999ZM216.848 32.6799C217.584 32.6799 218.096 32.4719 218.384 32.0559C218.704 31.6079 218.864 30.8399 218.864 29.7519C218.864 28.6639 218.704 27.9119 218.384 27.4959C218.064 27.0799 217.568 26.8719 216.896 26.8719H215.648V32.6799H216.848Z" fill="#0D5382"/>
<path d="M268.61 25.4999L261.11 18.9999C257.886 22.8276 257.392 25.3615 258.61 30.4999L268.61 25.4999Z" fill="#0D5382"/>
<path d="M258 47.4999L258.5 39.4999C261.974 40.3258 263.936 40.7249 267.5 40.9999C269 40.9999 269.5 39.9999 268 38.9999L261 35.4999L272.5 29.9999C280.974 33.4204 280.5 45.4999 274.5 47.4999C269.5 48.9999 267 48.9999 258 47.4999Z" fill="#FD9832"/>
<path d="M234 18.9999V41.9999L252 34.9999V30.4999H244V26.4999L253.5 26.9999L254 18.9999H234Z" fill="#0D5382"/>
<path d="M234 48.4999V46.9999L244.5 41.9999L253.5 40.9999L253 48.4999H234Z" fill="#FD9832"/>
<path d="M107.23 11.9999H104.08L103.78 10.5599H102.115L101.8 11.9999H98.7852L100.72 2.68488H105.295L107.23 11.9999ZM103.555 8.62488L102.985 5.50488H102.925L102.34 8.62488H103.555ZM115.952 5.68488C115.952 6.28488 115.852 6.76488 115.652 7.12488C115.462 7.47488 115.162 7.78488 114.752 8.05488L116.147 11.9999H112.832L111.902 8.78988H111.662V11.9999H108.587V2.68488H112.562C113.722 2.68488 114.577 2.92988 115.127 3.41988C115.677 3.89988 115.952 4.65488 115.952 5.68488ZM111.977 6.95988C112.207 6.95988 112.367 6.89488 112.457 6.76488C112.557 6.62488 112.607 6.38488 112.607 6.04488C112.607 5.70488 112.557 5.46988 112.457 5.33988C112.357 5.20988 112.202 5.14488 111.992 5.14488H111.602V6.95988H111.977ZM120.729 7.45488C120.729 8.21488 120.814 8.76988 120.984 9.11988C121.154 9.45988 121.439 9.62988 121.839 9.62988C122.239 9.62988 122.904 9.51988 123.834 9.29988L124.314 11.6849C123.334 11.9949 122.389 12.1499 121.479 12.1499C120.089 12.1499 119.074 11.7549 118.434 10.9649C117.804 10.1649 117.489 8.97988 117.489 7.40988C117.489 5.82988 117.819 4.62488 118.479 3.79488C119.139 2.95488 120.214 2.53488 121.704 2.53488C122.574 2.53488 123.444 2.70488 124.314 3.04488L123.819 5.71488C122.829 5.42488 122.149 5.27988 121.779 5.27988C121.419 5.27988 121.154 5.45488 120.984 5.80488C120.814 6.14488 120.729 6.69488 120.729 7.45488ZM132.022 5.21988H130.042V11.9999H126.847V5.21988H124.762L124.897 2.68488H132.202L132.022 5.21988ZM136.651 11.9999H133.486V2.68488H136.651V11.9999ZM141.627 7.45488C141.627 8.21488 141.712 8.76988 141.882 9.11988C142.052 9.45988 142.337 9.62988 142.737 9.62988C143.137 9.62988 143.802 9.51988 144.732 9.29988L145.212 11.6849C144.232 11.9949 143.287 12.1499 142.377 12.1499C140.987 12.1499 139.972 11.7549 139.332 10.9649C138.702 10.1649 138.387 8.97988 138.387 7.40988C138.387 5.82988 138.717 4.62488 139.377 3.79488C140.037 2.95488 141.112 2.53488 142.602 2.53488C143.472 2.53488 144.342 2.70488 145.212 3.04488L144.717 5.71488C143.727 5.42488 143.047 5.27988 142.677 5.27988C142.317 5.27988 142.052 5.45488 141.882 5.80488C141.712 6.14488 141.627 6.69488 141.627 7.45488Z" fill="#FD9832"/>
<path d="M155.956 11.9999H150.016V2.68488H156.166L155.956 5.15988H153.226V6.28488H155.611V8.44488H153.226V9.71988H156.166L155.956 11.9999ZM165.675 11.9999H162.24L161.4 9.46488H161.265L160.365 11.9999H157.08L158.88 7.25988L157.26 2.68488H160.755L161.445 5.29488H161.565L162.33 2.68488H165.45L163.95 7.27488L165.675 11.9999ZM170.824 9.08988H170.179V11.9999H167.029V2.68488H170.659C171.889 2.68488 172.784 2.93488 173.344 3.43488C173.904 3.93488 174.184 4.75988 174.184 5.90988C174.184 7.05988 173.914 7.87988 173.374 8.36988C172.834 8.84988 171.984 9.08988 170.824 9.08988ZM170.974 6.91488C171.064 6.75488 171.109 6.48488 171.109 6.10488C171.109 5.72488 171.059 5.45488 170.959 5.29488C170.869 5.13488 170.694 5.05488 170.434 5.05488H170.119V7.15488H170.509C170.739 7.15488 170.894 7.07488 170.974 6.91488ZM181.255 11.9999H175.66V2.68488H178.87V9.58488H181.465L181.255 11.9999ZM182.306 7.28988C182.306 5.61988 182.636 4.40988 183.296 3.65988C183.966 2.90988 185.061 2.53488 186.581 2.53488C188.111 2.53488 189.201 2.90488 189.851 3.64488C190.511 4.38488 190.841 5.58988 190.841 7.25988C190.841 8.91988 190.501 10.1499 189.821 10.9499C189.151 11.7499 188.061 12.1499 186.551 12.1499C185.051 12.1499 183.966 11.7549 183.296 10.9649C182.636 10.1749 182.306 8.94988 182.306 7.28988ZM187.421 5.50488C187.291 5.24488 187.011 5.11488 186.581 5.11488C186.151 5.11488 185.876 5.23988 185.756 5.48988C185.636 5.73988 185.576 6.27488 185.576 7.09488V7.75488C185.576 8.59488 185.641 9.13988 185.771 9.38988C185.901 9.63988 186.186 9.76488 186.626 9.76488C187.066 9.76488 187.341 9.64488 187.451 9.40488C187.561 9.16488 187.616 8.62988 187.616 7.79988V7.10988C187.616 6.28988 187.551 5.75488 187.421 5.50488ZM199.861 5.68488C199.861 6.28488 199.761 6.76488 199.561 7.12488C199.371 7.47488 199.071 7.78488 198.661 8.05488L200.056 11.9999H196.741L195.811 8.78988H195.571V11.9999H192.496V2.68488H196.471C197.631 2.68488 198.486 2.92988 199.036 3.41988C199.586 3.89988 199.861 4.65488 199.861 5.68488ZM195.886 6.95988C196.116 6.95988 196.276 6.89488 196.366 6.76488C196.466 6.62488 196.516 6.38488 196.516 6.04488C196.516 5.70488 196.466 5.46988 196.366 5.33988C196.266 5.20988 196.111 5.14488 195.901 5.14488H195.511V6.95988H195.886ZM207.639 11.9999H201.699V2.68488H207.849L207.639 5.15988H204.909V6.28488H207.294V8.44488H204.909V9.71988H207.849L207.639 11.9999ZM216.728 5.68488C216.728 6.28488 216.628 6.76488 216.428 7.12488C216.238 7.47488 215.938 7.78488 215.528 8.05488L216.923 11.9999H213.608L212.678 8.78988H212.438V11.9999H209.363V2.68488H213.338C214.498 2.68488 215.353 2.92988 215.903 3.41988C216.453 3.89988 216.728 4.65488 216.728 5.68488ZM212.753 6.95988C212.983 6.95988 213.143 6.89488 213.233 6.76488C213.333 6.62488 213.383 6.38488 213.383 6.04488C213.383 5.70488 213.333 5.46988 213.233 5.33988C213.133 5.20988 212.978 5.14488 212.768 5.14488H212.378V6.95988H212.753Z" fill="#0D5382"/>
</svg>
